<?xml version="1.0" encoding="UTF-8"?>
<!DOCTYPE svg PUBLIC "-//W3C//DTD SVG 1.1//EN" "http://www.w3.org/Graphics/SVG/1.1/DTD/svg11.dtd">
<!-- Creator: CorelDRAW 2026 -->
<svg xmlns="http://www.w3.org/2000/svg" xml:space="preserve" width="190.5mm" height="103.06mm" version="1.1" style="shape-rendering:geometricPrecision; text-rendering:geometricPrecision; image-rendering:optimizeQuality; fill-rule:evenodd; clip-rule:evenodd"
viewBox="0 0 22212.69 12017.01"
 xmlns:xlink="http://www.w3.org/1999/xlink"
 xmlns:xodm="http://www.corel.com/coreldraw/odm/2003">
 <defs>
  <style type="text/css">
   <![CDATA[
    .fil0 {fill:#020731}
   ]]>
  </style>
 </defs>
 <g id="Слой_x0020_1">
  <metadata id="CorelCorpID_0Corel-Layer"/>
  <g id="_37550721856">
   <path class="fil0" d="M20435.86 8592.24c-109.68,0 -240.08,-5.92 -389.78,-16.29 -53.33,-2.96 -121.49,-7.4 -202.99,-10.37 -81.5,-2.96 -171.91,-5.95 -272.7,-5.95l-379.36 5.95c-68.15,2.96 -161.54,5.92 -283.06,5.92 -7.4,0 -10.37,-10.39 -10.37,-32.6 0,-20.77 2.96,-32.61 10.37,-32.61 121.52,0 208.95,-8.89 263.81,-26.66 54.81,-17.81 93.35,-51.89 114.08,-103.75 20.76,-51.86 32.6,-130.41 32.6,-237.12l0 -2470.35c0,-106.71 -10.37,-185.27 -29.62,-234.16 -19.27,-50.38 -57.81,-84.47 -114.11,-103.72 -56.34,-19.29 -143.77,-29.65 -260.82,-29.65 -7.44,0 -10.4,-10.37 -10.4,-32.61 0,-20.73 2.96,-32.6 10.4,-32.6l283.03 5.95c157.09,7.4 281.57,10.37 373.44,10.37 139.29,0 283.06,-5.92 432.72,-16.31 177.85,-7.4 296.41,-10.37 357.16,-10.37 363.08,0 684.7,71.14 966.06,213.39 281.68,142.28 499.48,336.4 653.73,580.92 153.95,246.01 232.62,521.63 232.62,826.93 0,345.28 -79.91,650.55 -240.03,914.32 -160.11,265.29 -374.83,469.8 -646.33,613.54 -269.63,143.74 -567.44,216.36 -890.48,216.36l0 1.48zm-53.37 -106.68c246,0 463.87,-59.29 653.54,-176.35 189.73,-117.08 339.36,-290.46 446.11,-520.17 106.74,-229.68 160.12,-503.86 160.12,-823.93 0,-305.3 -50.61,-582.4 -152.71,-829.89 -100.88,-247.49 -244.65,-443.11 -429.76,-586.85 -185.29,-143.77 -400.17,-216.36 -646.17,-216.36 -152.62,0 -269.7,8.89 -349.72,26.66 -80.02,17.79 -139.29,50.41 -179.31,99.3 -38.53,47.42 -59.29,121.52 -59.29,220.81l0 2400.73c0,145.24 38.54,250.44 114.12,312.67 77.06,62.25 223.76,93.39 440.13,93.39l2.96 0z"/>
   <path class="fil0" d="M18088.48 8138.76c0,109.68 10.37,189.7 29.64,240.08 19.25,50.38 56.31,82.99 112.61,100.79 54.85,17.77 143.76,26.66 263.8,26.66 10.37,0 16.29,10.37 16.29,32.61 0,20.73 -5.92,32.6 -16.29,32.6 -114.12,0 -204.51,-1.48 -272.69,-5.92l-394.18 -5.95 -383.82 5.95c-68.18,2.96 -160.06,5.92 -277.13,5.92 -10.37,0 -16.29,-10.39 -16.29,-32.6 0,-20.77 5.92,-32.61 16.29,-32.61 121.51,0 208.95,-8.89 263.77,-26.66 54.86,-17.81 93.39,-51.89 114.12,-103.75 20.77,-51.86 32.61,-130.41 32.61,-237.12l0 -2470.35c0,-106.71 -10.37,-185.27 -32.61,-234.16 -20.73,-50.38 -59.26,-84.47 -114.12,-103.72 -54.81,-19.29 -143.74,-29.65 -263.77,-29.65 -10.37,0 -16.29,-10.37 -16.29,-32.61 0,-20.73 5.92,-32.6 16.29,-32.6l277.13 5.95c157.06,7.4 284.51,10.37 383.82,10.37 109.64,0 243.05,-2.96 400.11,-10.37l266.76 -5.95c10.37,0 16.29,10.39 16.29,32.6 0,20.77 -5.92,32.61 -16.29,32.61 -117.08,0 -204.51,10.37 -260.84,32.61 -56.31,20.73 -94.84,57.78 -114.1,109.64 -19.27,51.89 -29.64,130.41 -29.64,237.12l0 2458.51 -1.48 0z"/>
   <path class="fil0" d="M15816.67 5680.26c0,-106.71 -10.37,-185.23 -32.61,-237.12 -20.73,-51.86 -63.7,-87.43 -127.45,-109.64 -63.7,-20.77 -161.53,-32.61 -293.42,-32.61 -10.37,0 -16.29,-10.37 -16.29,-32.61 0,-20.73 5.92,-32.6 16.29,-32.6l256.37 5.95c170.41,7.4 321.59,10.37 453.48,10.37 96.31,0 225.24,-2.96 389.74,-10.37l293.42 -5.95c10.4,0 16.32,10.39 16.32,32.6 0,20.77 -5.92,32.61 -16.32,32.61 -127.45,0 -222.28,10.37 -283.03,29.65 -60.77,19.25 -100.79,54.81 -123,103.72 -20.76,50.37 -32.6,127.45 -32.6,234.16l0 2470.35c0,106.71 10.37,185.26 32.6,237.12 20.73,51.86 62.23,85.95 123,103.75 60.75,17.77 154.1,26.66 283.03,26.66 10.4,0 16.32,10.37 16.32,32.61 0,20.73 -5.92,32.6 -16.32,32.6 -121.52,0 -219.32,-1.48 -293.42,-5.92l-389.74 -5.95 -453.48 5.95c-63.71,2.96 -149.66,5.92 -256.37,5.92 -10.37,0 -16.29,-10.39 -16.29,-32.6 0,-20.77 5.92,-32.61 16.29,-32.61 134.85,0 234.16,-8.89 296.38,-26.66 62.27,-17.81 103.75,-51.89 125.97,-103.75 20.77,-51.86 32.61,-130.41 32.61,-237.12l0 -2458.51 -1.48 0zm-2107.3 1087.73l2336.98 0 0 139.29 -2336.98 0 0 -139.29zm-234.16 -1099.58c0,-106.71 -10.37,-185.27 -32.58,-234.16 -20.77,-50.38 -62.27,-84.47 -123,-103.72 -60.78,-19.29 -152.66,-29.65 -277.14,-29.65 -7.4,0 -10.37,-10.37 -10.37,-32.61 0,-20.73 2.96,-32.6 10.37,-32.6l283.06 5.95c163.01,7.4 291.94,10.37 383.82,10.37 124.47,0 272.65,-2.96 443.08,-10.37l277.14 -5.95c7.4,0 10.37,10.39 10.37,32.6 0,20.77 -2.96,32.61 -10.37,32.61 -127.45,0 -223.77,10.37 -286.02,32.61 -62.23,20.73 -105.2,57.78 -127.45,109.64 -23.69,51.89 -34.09,130.41 -34.09,237.12l0 2458.51c0,106.71 10.4,185.26 32.61,237.12 20.77,51.86 63.73,85.95 125.97,103.75 62.25,17.77 158.58,26.66 290.47,26.66 7.4,0 10.37,10.37 10.37,32.61 0,20.73 -2.96,32.6 -10.37,32.6 -121.52,0 -214.89,-1.48 -283.06,-5.92l-437.15 -5.95 -389.74 5.95c-68.19,2.96 -161.54,5.92 -283.06,5.92 -7.4,0 -10.37,-10.39 -10.37,-32.6 0,-20.77 2.96,-32.61 10.37,-32.61 127.45,0 222.28,-8.89 283.06,-26.66 60.74,-17.81 100.76,-51.89 123,-103.75 20.73,-51.86 32.58,-130.41 32.58,-237.12l0 -2470.35 -1.48 0z"/>
   <path class="fil0" d="M11474.61 5179.36c394.18,0 712.81,54.83 954.35,165.98 28.16,14.81 45.96,28.16 53.37,40.01 7.4,11.85 14.81,40.02 20.73,82.99l63.73 703.93c0,10.37 -8.92,17.77 -26.69,20.73 -17.77,2.96 -29.64,-1.48 -37.04,-16.29 -91.87,-291.94 -229.68,-514.22 -413.47,-666.87 -183.74,-152.64 -410.46,-229.68 -680.2,-229.68 -263.78,0 -496.46,65.19 -699.45,194.11 -203.04,130.41 -361.61,317.16 -474.24,560.17 -114.08,243.05 -170.43,527.58 -170.43,850.65 0,320.08 60.78,606.1 180.83,856.55 121.49,250.45 285.98,446.07 496.42,583.88 210.43,139.29 446.07,207.48 709.85,207.48 259.33,0 475.71,-68.19 647.62,-206 171.91,-136.33 324.53,-354.17 456.4,-653.54 3,-10.37 14.84,-14.81 32.61,-10.37 17.81,2.96 26.69,8.89 26.69,16.32l-69.67 634.26c-7.4,42.98 -14.81,69.63 -20.73,83 -7.4,11.85 -25.2,25.17 -53.37,40.01 -320.07,131.89 -660.92,197.08 -1024,197.08 -376.41,0 -714.29,-72.62 -1013.64,-216.36 -299.34,-143.74 -532.02,-346.76 -699.48,-607.58 -167.45,-260.85 -250.45,-561.67 -250.45,-899.56 0,-334.92 85.96,-632.78 259.37,-896.55 171.89,-263.78 410.47,-468.29 712.81,-616.5 302.3,-148.18 641.66,-220.8 1019.56,-220.8l-1.48 2.96z"/>
   <path class="fil0" d="M6467.16 9281.36l-2670.46 2735.65 -2735.65 -2670.46c780.99,-800.24 1529.38,-1582.69 2313.3,-2378.48l-743.91 -729.14 -2298.49 2262.92 -105.23 -106.68c-287.47,-293.43 -265.26,-288.99 -29.62,-492.01 51.86,-44.46 114.1,-99.27 185.23,-170.43l128.93 -127.45 2113.23 -2079.17 1109.98 1077.38 1074.39 -1087.75 2452.62 2403.69c248.97,243.05 247.45,157.1 -1.48,410.5l-152.66 155.62 -2288.09 -2252.55 -717.25 729.1c792.81,776.55 1572.32,1545.67 2365.16,2320.73l0 -1.48zm-2726.76 -1945.8l2002.1 1954.68 -1954.68 2002.08 -2002.1 -1954.66 1954.68 -2002.1z"/>
   <path class="fil0" d="M2786.03 8337.35l1954.68 0 0 1954.69 -1954.68 0 0 -1954.69zm383.81 383.82l1187.06 0 0 1187.06 -1187.06 0 0 -1187.06z"/>
   <path class="fil0" d="M6932.49 3257.28l256.36 0c140.77,0 256.37,115.6 256.37,256.41l0 3276.52 -256.37 0c-140.76,0 -256.36,-115.56 -256.36,-256.36l0 -3276.56z"/>
   <path class="fil0" d="M5228.25 1812.4l256.37 0c140.81,0 256.37,115.6 256.37,256.37l0 3276.56 -256.37 0c-140.77,0 -256.37,-115.6 -256.37,-256.37l0 -3276.56z"/>
   <path class="fil0" d="M3744.84 0c140.77,0 256.37,115.6 256.37,256.37l0 4319.85 -512.73 0 0 -4319.85c0,-140.77 115.6,-256.37 256.36,-256.37z"/>
   <path class="fil0" d="M1947.25 1809.44l256.37 0 0 3276.56c0,140.77 -115.58,256.37 -256.37,256.37l-256.37 0 0 -3276.56c0,-140.77 115.6,-256.37 256.37,-256.37z"/>
   <path class="fil0" d="M256.37 3283.97l256.37 0 0 3276.55c0,140.77 -115.6,256.37 -256.37,256.37l-256.37 0 0 -3276.55c0,-140.77 115.6,-256.37 256.37,-256.37z"/>
  </g>
 </g>
</svg>
