<?xml version="1.0" encoding="UTF-8"?>
<!DOCTYPE svg PUBLIC "-//W3C//DTD SVG 1.1//EN" "http://www.w3.org/Graphics/SVG/1.1/DTD/svg11.dtd">
<!-- Creator: CorelDRAW 2026 -->
<svg xmlns="http://www.w3.org/2000/svg" xml:space="preserve" width="26.4746mm" height="26.4746mm" version="1.1" style="shape-rendering:geometricPrecision; text-rendering:geometricPrecision; image-rendering:optimizeQuality; fill-rule:evenodd; clip-rule:evenodd"
viewBox="0 0 1356.76 1356.76"
 xmlns:xlink="http://www.w3.org/1999/xlink"
 xmlns:xodm="http://www.corel.com/coreldraw/odm/2003">
 <defs>
  <style type="text/css">
   <![CDATA[
    .fil1 {fill:white}
    .fil0 {fill:#020731}
   ]]>
  </style>
 </defs>
 <g id="Слой_x0020_1">
  <metadata id="CorelCorpID_0Corel-Layer"/>
  <rect class="fil0" width="1356.76" height="1356.76"/>
  <g id="_37550610368">
   <path class="fil1" d="M916.28 962.19l-231.57 237.23 -237.23 -231.57c67.72,-69.39 132.62,-137.24 200.6,-206.25l-64.51 -63.23 -199.32 196.23 -9.13 -9.25c-24.93,-25.44 -23,-25.06 -2.57,-42.67 4.49,-3.85 9.89,-8.6 16.06,-14.77l11.18 -11.05 183.25 -180.29 96.25 93.42 93.17 -94.33 212.68 208.44c21.59,21.08 21.46,13.62 -0.13,35.6l-13.24 13.49 -198.42 -195.33 -62.19 63.22c68.75,67.34 136.34,134.03 205.1,201.24l0 -0.13zm-236.46 -168.73l173.62 169.5 -169.51 173.62 -173.61 -169.5 169.5 -173.62z"/>
   <path class="fil1" d="M597.07 880.33l169.5 0 0 169.51 -169.5 0 0 -169.51zm33.29 33.29l102.94 0 0 102.94 -102.94 0 0 -102.94z"/>
   <path class="fil1" d="M956.63 439.8l22.23 0c12.21,0 22.23,10.03 22.23,22.24l0 284.13 -22.23 0c-12.2,0 -22.23,-10.02 -22.23,-22.23l0 -284.13z"/>
   <path class="fil1" d="M808.85 314.51l22.23 0c12.21,0 22.23,10.02 22.23,22.23l0 284.13 -22.23 0c-12.21,0 -22.23,-10.02 -22.23,-22.23l0 -284.13z"/>
   <path class="fil1" d="M680.21 157.35c12.21,0 22.23,10.02 22.23,22.23l0 374.6 -44.46 0 0 -374.6c0,-12.21 10.02,-22.23 22.23,-22.23z"/>
   <path class="fil1" d="M524.33 314.26l22.23 0 0 284.13c0,12.21 -10.02,22.24 -22.23,22.24l-22.23 0 0 -284.13c0,-12.21 10.02,-22.23 22.23,-22.23z"/>
   <path class="fil1" d="M377.7 442.12l22.23 0 0 284.13c0,12.21 -10.02,22.23 -22.23,22.23l-22.23 0 0 -284.13c0,-12.21 10.02,-22.23 22.23,-22.23z"/>
  </g>
 </g>
</svg>
